<?xml version="1.0" encoding="UTF-8" standalone="no"?>
<svg width="45px" height="28px" viewBox="0 0 45 28" version="1.1" xmlns="http://www.w3.org/2000/svg" xmlns:xlink="http://www.w3.org/1999/xlink">
    <!-- Generator: Sketch 48.2 (47327) - http://www.bohemiancoding.com/sketch -->
    <title>Artboard</title>
    <desc>Created with Sketch.</desc>
    <defs>
        <polygon id="path-1" points="7.67398424e-05 0.126111111 44.8870345 0.126111111 44.8870345 8.24060726 7.67398424e-05 8.24060726"></polygon>
    </defs>
    <g id="Welcome" stroke="none" stroke-width="1" fill="none" fill-rule="evenodd">
        <g id="Artboard">
            <g id="Group-34">
                <g id="Group-16">
                    <g id="Group-3">
                        <mask id="mask-2" fill="white">
                            <use xlink:href="#path-1"></use>
                        </mask>
                        <g id="Clip-2"></g>
                        <path d="M24.5025466,5.65064815 L35.9524086,1.43691358 L44.0035293,7.50728395 C44.2448224,7.68891975 44.5914776,7.64324074 44.7752017,7.40188272 C44.9587707,7.16083333 44.9117534,6.81700617 44.6690638,6.63429012 L36.0374431,0.126111111 L24.38865,4.45265432 L12.6057879,2.38861111 L0.399615517,7.16608025 C0.106494828,7.24941358 -0.0623327586,7.55296296 0.0216155172,7.8437037 C0.10602931,8.13351852 0.410012069,8.30296296 0.702977586,8.21916667 L12.5756845,3.53722222 L24.5025466,5.65064815 Z" id="Fill-1" fill="#726D73" mask="url(#mask-2)"></path>
                    </g>
                    <path d="M2.5,27.0826218 C2.5,27.3130263 2.31316254,27.5 2.08259717,27.5 L0.417255595,27.5 C0.186690224,27.5 0,27.3130263 0,27.0826218 L0,25.417231 C0,25.1868265 0.186690224,25 0.417255595,25 L2.08259717,25 C2.31316254,25 2.5,25.1868265 2.5,25.417231 L2.5,27.0826218 Z" id="Fill-4" fill="#726D73"></path>
                    <path d="M7.12962963,27.0697953 C7.12962963,27.3072804 6.94257885,27.5 6.71222654,27.5 L5.04718,27.5 C4.81653313,27.5 4.62962963,27.3072804 4.62962963,27.0697953 L4.62962963,22.0967196 C4.62962963,21.8590828 4.81653313,21.6666667 5.04718,21.6666667 L6.71222654,21.6666667 C6.94257885,21.6666667 7.12962963,21.8590828 7.12962963,22.0967196 L7.12962963,27.0697953 Z" id="Fill-6" fill="#726D73"></path>
                    <path d="M11.7592593,27.0608588 C11.7592593,27.3032771 11.5724218,27.5 11.3418564,27.5 L9.67651485,27.5 C9.44594948,27.5 9.25925926,27.3032771 9.25925926,27.0608588 L9.25925926,18.7723197 C9.25925926,18.5299013 9.44594948,18.3333333 9.67651485,18.3333333 L11.3418564,18.3333333 C11.5724218,18.3333333 11.7592593,18.5299013 11.7592593,18.7723197 L11.7592593,27.0608588 Z" id="Fill-8" fill="#726D73"></path>
                    <path d="M16.3888889,27.0818072 C16.3888889,27.3126614 16.2019854,27.5 15.9713385,27.5 L14.306292,27.5 C14.0759397,27.5 13.8888889,27.3126614 13.8888889,27.0818072 L13.8888889,17.084712 C13.8888889,16.8538577 14.0759397,16.6666667 14.306292,16.6666667 L15.9713385,16.6666667 C16.2019854,16.6666667 16.3888889,16.8538577 16.3888889,17.084712 L16.3888889,27.0818072 Z" id="Fill-10" fill="#726D73"></path>
                    <path d="M21.0185185,27.0408342 C21.0185185,27.2943067 20.8313906,27.5 20.6009432,27.5 L18.9362412,27.5 C18.7054991,27.5 18.5185185,27.2943067 18.5185185,27.0408342 L18.5185185,19.6258325 C18.5185185,19.3720361 18.7054991,19.1666667 18.9362412,19.1666667 L20.6009432,19.1666667 C20.8313906,19.1666667 21.0185185,19.3720361 21.0185185,19.6258325 L21.0185185,27.0408342 Z" id="Fill-12" fill="#726D73"></path>
                    <path d="M25.6481481,27.0699072 C25.6481481,27.3073305 25.4611635,27.5 25.2307453,27.5 L23.5654037,27.5 C23.3349856,27.5 23.1481481,27.3073305 23.1481481,27.0699072 L23.1481481,22.0966078 C23.1481481,21.8590327 23.3349856,21.6666667 23.5654037,21.6666667 L25.2307453,21.6666667 C25.4611635,21.6666667 25.6481481,21.8590327 25.6481481,22.0966078 L25.6481481,27.0699072 Z" id="Fill-14" fill="#726D73"></path>
                    <path d="M30.2777778,27.0607845 C30.2777778,27.3032439 30.090738,27.5 29.860252,27.5 L28.1953036,27.5 C27.9648175,27.5 27.7777778,27.3032439 27.7777778,27.0607845 L27.7777778,18.7723939 C27.7777778,18.5299345 27.9648175,18.3333333 28.1953036,18.3333333 L29.860252,18.3333333 C30.090738,18.3333333 30.2777778,18.5299345 30.2777778,18.7723939 L30.2777778,27.0607845 Z" id="Fill-16" fill="#726D73"></path>
                    <path d="M34.9074074,27.0481736 C34.9074074,27.2975945 34.7202464,27.5 34.4896109,27.5 L32.8252039,27.5 C32.5945685,27.5 32.4074074,27.2975945 32.4074074,27.0481736 L32.4074074,12.9516671 C32.4074074,12.7022461 32.5945685,12.5 32.8252039,12.5 L34.4896109,12.5 C34.7202464,12.5 34.9074074,12.7022461 34.9074074,12.9516671 L34.9074074,27.0481736 Z" id="Fill-18" fill="#726D73"></path>
                    <path d="M39.537037,27.0598352 C39.537037,27.3028186 39.3499863,27.5 39.1194867,27.5 L37.4545874,27.5 C37.2240878,27.5 37.037037,27.3028186 37.037037,27.0598352 L37.037037,17.1068315 C37.037037,16.8636928 37.2240878,16.6666667 37.4545874,16.6666667 L39.1194867,16.6666667 C39.3499863,16.6666667 39.537037,16.8636928 39.537037,17.1068315 L39.537037,27.0598352 Z" id="Fill-20" fill="#726D73"></path>
                    <path d="M44.1666667,27.0995989 C44.1666667,27.3206316 43.9794946,27.5 43.7488455,27.5 L42.0844878,27.5 C41.8538387,27.5 41.6666667,27.3206316 41.6666667,27.0995989 L41.6666667,25.4002599 C41.6666667,25.1790859 41.8538387,25 42.0844878,25 L43.7488455,25 C43.9794946,25 44.1666667,25.1790859 44.1666667,25.4002599 L44.1666667,27.0995989 Z" id="Fill-22" fill="#726D73"></path>
                </g>
            </g>
        </g>
    </g>
</svg>