<?xml version="1.0" encoding="UTF-8" standalone="no"?>
<svg width="46px" height="28px" viewBox="0 0 46 28" version="1.1" xmlns="http://www.w3.org/2000/svg" xmlns:xlink="http://www.w3.org/1999/xlink">
    <!-- Generator: Sketch 48.2 (47327) - http://www.bohemiancoding.com/sketch -->
    <title>Artboard Copy 2</title>
    <desc>Created with Sketch.</desc>
    <defs>
        <polygon id="path-1" points="0.0503339161 0.0192142328 22.3615385 0.0192142328 22.3615385 22.7174838 0.0503339161 22.7174838"></polygon>
    </defs>
    <g id="Welcome" stroke="none" stroke-width="1" fill="none" fill-rule="evenodd">
        <g id="Artboard-Copy-2">
            <g id="Group-18-Copy-2" transform="translate(1.000000, 0.000000)">
                <g id="Page-1">
                    <path d="M33.6436949,2.84210526 L2.21568012,2.84210526 C0.99207691,2.84210526 0,3.83117623 0,5.05107199 L0,24.7910333 C0,26.010929 0.99207691,27 2.21568012,27 L33.6436949,27 C34.8672981,27 35.859375,26.010929 35.859375,24.7910333 L35.859375,18.7005942" id="Stroke-1" stroke="#726D73" stroke-linecap="round" stroke-linejoin="round"></path>
                    <g id="Group-5" transform="translate(22.500000, 0.000000)">
                        <mask id="mask-2" fill="white">
                            <use xlink:href="#path-1"></use>
                        </mask>
                        <g id="Clip-4"></g>
                        <path d="M13.4340577,14.5033993 L6.43293881,21.6280368 L1.12089336,16.2222725 L13.1827815,3.94758013 L15.7575367,1.32755938 L21.0694248,6.73332365 L13.4340577,14.5033993 Z M22.2046521,6.34807828 L16.1357885,0.172303632 C15.9351766,-0.0318475908 15.5797395,-0.0318475908 15.3789703,0.172303632 L12.4747395,3.12777287 L0.207361888,15.6117403 C0.106662587,15.7137358 0.0503339161,15.8519182 0.0503339161,15.9968255 L0.0503339161,22.1726001 C0.0503339161,22.4739434 0.290281469,22.7174838 0.585613636,22.7174838 L6.65447727,22.7174838 C6.79671503,22.7174838 6.93281643,22.6595208 7.03288636,22.5578455 L13.4340577,16.0437403 L22.2046521,7.1184089 C22.4139178,6.90545115 22.4139178,6.56103603 22.2046521,6.34807828 Z" id="Fill-3" fill="#726D73" mask="url(#mask-2)"></path>
                    </g>
                    <path d="M17.578125,8.93475143 C17.578125,9.10161134 17.4482435,9.23684211 17.288175,9.23684211 L3.80542024,9.23684211 C3.64550652,9.23684211 3.515625,9.10161134 3.515625,8.93475143 L3.515625,7.40735384 C3.515625,7.24065529 3.64550652,7.10526316 3.80542024,7.10526316 L17.288175,7.10526316 C17.4482435,7.10526316 17.578125,7.24065529 17.578125,7.40735384 L17.578125,8.93475143 Z" id="Fill-6" fill="#726D73"></path>
                    <path d="M17.578125,12.487383 C17.578125,12.6542429 17.4482435,12.7894737 17.288175,12.7894737 L3.80542024,12.7894737 C3.64550652,12.7894737 3.515625,12.6542429 3.515625,12.487383 L3.515625,10.9599854 C3.515625,10.7932869 3.64550652,10.6578947 3.80542024,10.6578947 L17.288175,10.6578947 C17.4482435,10.6578947 17.578125,10.7932869 17.578125,10.9599854 L17.578125,12.487383 Z" id="Fill-8" fill="#726D73"></path>
                    <path d="M17.578125,16.0400146 C17.578125,16.2068745 17.4482435,16.3421053 17.288175,16.3421053 L3.80542024,16.3421053 C3.64550652,16.3421053 3.515625,16.2068745 3.515625,16.0400146 L3.515625,14.512617 C3.515625,14.3459185 3.64550652,14.2105263 3.80542024,14.2105263 L17.288175,14.2105263 C17.4482435,14.2105263 17.578125,14.3459185 17.578125,14.512617 L17.578125,16.0400146 Z" id="Fill-10" fill="#726D73"></path>
                </g>
            </g>
        </g>
    </g>
</svg>