<?xml version="1.0" encoding="UTF-8" standalone="no"?>
<svg width="45px" height="28px" viewBox="0 0 45 28" version="1.1" xmlns="http://www.w3.org/2000/svg" xmlns:xlink="http://www.w3.org/1999/xlink">
    <!-- Generator: Sketch 48.2 (47327) - http://www.bohemiancoding.com/sketch -->
    <title>Artboard Copy</title>
    <desc>Created with Sketch.</desc>
    <defs>
        <polygon id="path-1" points="0 0 45 0 45 3.75 0 3.75"></polygon>
    </defs>
    <g id="Welcome" stroke="none" stroke-width="1" fill="none" fill-rule="evenodd">
        <g id="Artboard-Copy">
            <g id="Group-19-Copy-2">
                <g id="Group-15" transform="translate(39.750000, 8.250000)" fill="#726D73">
                    <polygon id="Fill-10" points="0 3.75 4.5 3.75 4.5 0 0 0"></polygon>
                    <polygon id="Fill-17" points="0 9 4.5 9 4.5 5.25 0 5.25"></polygon>
                    <polygon id="Fill-24" points="0 14.25 4.5 14.25 4.5 10.5 0 10.5"></polygon>
                </g>
                <g id="Group-4" transform="translate(0.750000, 13.500000)" fill="#726D73">
                    <polygon id="Fill-11" points="0 3.75 4.5 3.75 4.5 0 0 0"></polygon>
                    <polygon id="Fill-18" points="0 9 4.5 9 4.5 5.25 0 5.25"></polygon>
                    <polygon id="Fill-25" points="0 14.25 4.5 14.25 4.5 10.5 0 10.5"></polygon>
                </g>
                <g id="Group-7" transform="translate(7.250000, 13.500000)" fill="#726D73">
                    <polygon id="Fill-12" points="0 3.75 4.5 3.75 4.5 0 0 0"></polygon>
                    <polygon id="Fill-19" points="0 9 4.5 9 4.5 5.25 0 5.25"></polygon>
                    <polygon id="Fill-26" points="0 14.25 4.5 14.25 4.5 10.5 0 10.5"></polygon>
                </g>
                <g id="Group-8" transform="translate(13.750000, 8.250000)">
                    <polygon id="Fill-6" fill="#726D73" points="0 3.75 4.5 3.75 4.5 0 0 0"></polygon>
                    <polygon id="Stroke-13" stroke="#726D73" stroke-linecap="round" stroke-linejoin="round" points="0 9 4.5 9 4.5 5.25 0 5.25"></polygon>
                    <polygon id="Fill-20" fill="#726D73" points="0 14.25 4.5 14.25 4.5 10.5 0 10.5"></polygon>
                    <polygon id="Fill-27" fill="#726D73" points="0 19.5 4.5 19.5 4.5 15.75 0 15.75"></polygon>
                </g>
                <g id="Group-9" transform="translate(20.250000, 8.250000)">
                    <polygon id="Fill-7" fill="#726D73" points="0 3.75 4.5 3.75 4.5 0 0 0"></polygon>
                    <polygon id="Stroke-14" stroke="#726D73" stroke-linecap="round" stroke-linejoin="round" points="0 9 4.5 9 4.5 5.25 0 5.25"></polygon>
                    <polygon id="Fill-21" fill="#726D73" points="0 14.25 4.5 14.25 4.5 10.5 0 10.5"></polygon>
                    <polygon id="Fill-28" fill="#726D73" points="0 19.5 4.5 19.5 4.5 15.75 0 15.75"></polygon>
                </g>
                <g id="Group-10" transform="translate(26.750000, 8.250000)">
                    <polygon id="Fill-8" fill="#726D73" points="0 3.75 4.5 3.75 4.5 0 0 0"></polygon>
                    <polygon id="Stroke-15" stroke="#726D73" stroke-linecap="round" stroke-linejoin="round" points="0 9 4.5 9 4.5 5.25 0 5.25"></polygon>
                    <polygon id="Fill-22" fill="#726D73" points="0 14.25 4.5 14.25 4.5 10.5 0 10.5"></polygon>
                    <polygon id="Fill-29" fill="#726D73" points="0 19.5 4.5 19.5 4.5 15.75 0 15.75"></polygon>
                </g>
                <g id="Group-11" transform="translate(33.250000, 8.250000)">
                    <polygon id="Fill-9" fill="#726D73" points="0 3.75 4.5 3.75 4.5 0 0 0"></polygon>
                    <polygon id="Stroke-16" stroke="#726D73" stroke-linecap="round" stroke-linejoin="round" points="0 9 4.5 9 4.5 5.25 0 5.25"></polygon>
                    <polygon id="Fill-23" fill="#726D73" points="0 14.25 4.5 14.25 4.5 10.5 0 10.5"></polygon>
                    <polygon id="Fill-30" fill="#726D73" points="0 19.5 4.5 19.5 4.5 15.75 0 15.75"></polygon>
                </g>
                <g id="Group-38">
                    <g id="Group-33" transform="translate(0.000000, 2.250000)">
                        <mask id="mask-2" fill="white">
                            <use xlink:href="#path-1"></use>
                        </mask>
                        <g id="Clip-32"></g>
                        <path d="M45,3.29760638 C45,3.54734043 44.793985,3.75 44.5401161,3.75 L0.459883853,3.75 C0.205852772,3.75 0,3.54734043 0,3.29760638 L0,0.452393617 C0,0.2025 0.205852772,0 0.459883853,0 L44.5401161,0 C44.793985,0 45,0.2025 45,0.452393617 L45,3.29760638 Z" id="Fill-31" fill="#726D73" mask="url(#mask-2)"></path>
                    </g>
                    <path d="M7.5,1.99820392 C7.5,2.13720246 7.32325107,2.25 7.10544628,2.25 L5.64455372,2.25 C5.42674893,2.25 5.25,2.13720246 5.25,1.99820392 L5.25,0.251796076 C5.25,0.11270872 5.42674893,0 5.64455372,0 L7.10544628,0 C7.32325107,0 7.5,0.11270872 7.5,0.251796076 L7.5,1.99820392 Z" id="Fill-34" fill="#726D73"></path>
                    <path d="M39,1.99820392 C39,2.13720246 38.8232511,2.25 38.6054463,2.25 L37.1445537,2.25 C36.9267489,2.25 36.75,2.13720246 36.75,1.99820392 L36.75,0.251796076 C36.75,0.11270872 36.9267489,0 37.1445537,0 L38.6054463,0 C38.8232511,0 39,0.11270872 39,0.251796076 L39,1.99820392 Z" id="Fill-36" fill="#726D73"></path>
                </g>
            </g>
        </g>
    </g>
</svg>