<?xml version="1.0" encoding="UTF-8" standalone="no"?>
<svg width="46px" height="28px" viewBox="0 0 46 28" version="1.1" xmlns="http://www.w3.org/2000/svg" xmlns:xlink="http://www.w3.org/1999/xlink">
    <!-- Generator: Sketch 48.2 (47327) - http://www.bohemiancoding.com/sketch -->
    <title>Artboard Copy 3</title>
    <desc>Created with Sketch.</desc>
    <defs>
        <polygon id="path-1" points="0 28.3007812 44.971875 28.3007812 44.971875 0 12.5571536 0 0 0"></polygon>
    </defs>
    <g id="Welcome" stroke="none" stroke-width="1" fill="none" fill-rule="evenodd">
        <g id="Artboard-Copy-3">
            <g id="Group-45-Copy-2">
                <polygon id="Fill-1" fill="#726D73" points="11.9411765 24 14.0588235 24 14.0588235 17 11.9411765 17"></polygon>
                <polygon id="Fill-2" fill="#726D73" points="7.97058824 24 10.0882353 24 10.0882353 20 7.97058824 20"></polygon>
                <path d="M38.8295313,27 L3.49134766,27 C2.11550781,27 1,25.9355097 1,24.6225935 L1,3.37740645 C1,2.06449032 2.11550781,1 3.49134766,1 L38.8295313,1 C40.2053711,1 41.3208789,2.06449032 41.3208789,3.37740645 L41.3208789,9.93225806" id="Stroke-8" stroke="#726D73" stroke-linecap="round" stroke-linejoin="round"></path>
                <polygon id="Fill-3" fill="#726D73" points="20 24 22 24 22 17 20 17"></polygon>
                <polygon id="Fill-4" fill="#726D73" points="15.9117647 24 18.0294118 24 18.0294118 20 15.9117647 20"></polygon>
                <polygon id="Fill-5" fill="#726D73" points="4 24 6 24 6 15 4 15"></polygon>
                <mask id="mask-2" fill="white">
                    <use xlink:href="#path-1"></use>
                </mask>
                <g id="Clip-15"></g>
                <path d="M6.01127141,11.8247698 C4.99878689,11.8247698 4.17551113,11.0012131 4.17551113,9.98915 C4.17551113,8.99970203 4.9619846,8.19145621 5.94244269,8.15493485 C5.94637576,8.15479439 5.95073023,8.15479439 5.95494423,8.15451345 L5.95494423,9.9552975 L5.95578703,9.9552975 L7.48926281,11.0756605 C7.48532974,11.0809982 7.48181807,11.0867574 7.47760407,11.0920951 C7.14230987,11.5366725 6.60980033,11.8247698 6.01127141,11.8247698 M6.01127141,8 C4.91436636,8 4.02240234,8.89210449 4.02240234,9.98872859 C4.02240234,11.0853527 4.91450683,11.9775977 6.01127141,11.9775977 C6.6602279,11.9775977 7.23796775,11.6646377 7.60107436,11.1821343 C7.62270624,11.15376 7.64335486,11.1244025 7.66344161,11.094764 C7.87582737,10.7785733 8,10.3979083 8,9.98872859 C8,8.89210449 7.10789551,8 6.01127141,8" id="Fill-6" fill="#726D73" mask="url(#mask-2)"></path>
                <path d="M43.8075586,27.6685352 C43.5867773,27.6685352 43.3666992,27.5838086 43.1984766,27.4166406 L36.3092578,20.5267187 C35.9726367,20.1900977 35.9726367,19.6457031 36.3092578,19.309082 C36.6458789,18.9724609 37.1900977,18.9724609 37.5268945,19.309082 L44.4168164,26.1984766 C44.7534375,26.5350977 44.7534375,27.0793164 44.4168164,27.4166406 C44.248418,27.5838086 44.0283398,27.6685352 43.8075586,27.6685352 M31.7503711,8.72212891 C28.4266992,8.72212891 25.7219531,11.426875 25.7219531,14.7503711 C25.7219531,18.0752734 28.4266992,20.7786133 31.7503711,20.7786133 C35.0752734,20.7786133 37.7793164,18.0752734 37.7793164,14.7503711 C37.7793164,11.426875 35.0752734,8.72212891 31.7503711,8.72212891 M31.7503711,22.5017969 C27.477832,22.5017969 24,19.0248438 24,14.7503711 C24,10.4776563 27.477832,7 31.7503711,7 C36.0250195,7 39.5019727,10.4776563 39.5019727,14.7503711 C39.5019727,19.0248438 36.0250195,22.5017969 31.7503711,22.5017969" id="Fill-10" fill="#726D73" mask="url(#mask-2)"></path>
                <path d="M4,5 L38.7900977,5" id="Stroke-12" stroke="#726D73" stroke-linecap="round" mask="url(#mask-2)"></path>
                <g id="Group-24" mask="url(#mask-2)" fill="#726D73">
                    <g transform="translate(10.000000, 8.000000)">
                        <polygon id="Fill-14" points="0 0.761835937 11.7186328 0.761835937 11.7186328 0 0 0"></polygon>
                        <polygon id="Fill-16" points="0 2.26183594 11.7186328 2.26183594 11.7186328 1.5 0 1.5"></polygon>
                        <polygon id="Fill-17" points="0 3.76183594 11.7186328 3.76183594 11.7186328 3 0 3"></polygon>
                    </g>
                </g>
                <path d="M5.02410156,3.51205078 C5.02410156,3.79470703 4.79470703,4.02410156 4.51205078,4.02410156 C4.22939453,4.02410156 4,3.79470703 4,3.51205078 C4,3.22939453 4.22939453,3 4.51205078,3 C4.79470703,3 5.02410156,3.22939453 5.02410156,3.51205078" id="Fill-18" fill="#726D73" mask="url(#mask-2)"></path>
                <path d="M6.52410156,3.51205078 C6.52410156,3.79470703 6.29470703,4.02410156 6.01205078,4.02410156 C5.72939453,4.02410156 5.5,3.79470703 5.5,3.51205078 C5.5,3.22939453 5.72939453,3 6.01205078,3 C6.29470703,3 6.52410156,3.22939453 6.52410156,3.51205078" id="Fill-19" fill="#726D73" mask="url(#mask-2)"></path>
                <path d="M8.02410156,3.51205078 C8.02410156,3.79470703 7.79470703,4.02410156 7.51205078,4.02410156 C7.22939453,4.02410156 7,3.79470703 7,3.51205078 C7,3.22939453 7.22939453,3 7.51205078,3 C7.79470703,3 8.02410156,3.22939453 8.02410156,3.51205078" id="Fill-20" fill="#726D73" mask="url(#mask-2)"></path>
            </g>
        </g>
    </g>
</svg>